<svg xmlns="http://www.w3.org/2000/svg" version="1.1" xmlns:xlink="http://www.w3.org/1999/xlink" xmlns:svgjs="http://svgjs.dev/svgjs" width="1500" height="1500" viewBox="0 0 1500 1500"><rect width="1500" height="1500" fill="#ffffff"></rect><g transform="matrix(0.6666666666666666,0,0,0.6666666666666666,249.39393939393938,435.99032258064517)"><svg viewBox="0 0 396 248" data-background-color="#ffffff" preserveAspectRatio="xMidYMid meet" height="939" width="1500" xmlns="http://www.w3.org/2000/svg" xmlns:xlink="http://www.w3.org/1999/xlink"><g id="tight-bounds" transform="matrix(1,0,0,1,0.2400000000000091,0.4000000000000057)"><svg viewBox="0 0 395.52 247.2" height="247.2" width="395.52"><g><svg></svg></g><g><svg viewBox="0 0 395.52 247.2" height="247.2" width="395.52"><g transform="matrix(1,0,0,1,75.54432,107.91303990665111)"><svg viewBox="0 0 244.43135999999998 31.373920186697774" height="31.373920186697774" width="244.43135999999998"><g><svg viewBox="0 0 244.43135999999998 31.373920186697774" height="31.373920186697774" width="244.43135999999998"><g><svg viewBox="0 0 244.43136 31.373920186697777" height="31.373920186697774" width="244.43135999999998"><g><svg viewBox="0 0 244.43136 31.373920186697777" height="31.373920186697777" width="244.43136"><g id="textblocktransform"><svg viewBox="0 0 244.43136 31.373920186697777" height="31.373920186697777" width="244.43136" id="textblock"><g><svg viewBox="0 0 244.43136 31.373920186697777" height="31.373920186697777" width="244.43136"><g transform="matrix(1,0,0,1,0,0)"><svg width="244.43136" viewBox="2.5 -38.5 299.93 38.5" height="31.373920186697777" data-palette-color="#636365"><path d="M16.35-20.5L33.85-1.1Q34.05-0.85 34.58-0.9 35.1-0.95 35.15-0.95L35.15-0.95 35.15 0 23.85 0 23.85-0.95Q24.55-0.95 24.65-1.1 24.75-1.25 24.5-1.5L24.5-1.5 11.65-15.8 10-14.1 10-1.5Q10-1.25 10.38-1.1 10.75-0.95 11.1-0.95L11.1-0.95 11.1 0 2.5 0 2.5-0.95Q2.85-0.95 3.23-1.1 3.6-1.25 3.6-1.5L3.6-1.5 3.6-36Q3.6-36.25 3.23-36.4 2.85-36.55 2.5-36.55L2.5-36.55 2.5-37.5 11.1-37.5 11.1-36.55Q10.75-36.55 10.38-36.4 10-36.25 10-36L10-36 10-22.9 23.1-36.1Q23.2-36.2 23.2-36.3L23.2-36.3Q23.2-36.55 22.4-36.55L22.4-36.55 22.4-37.5 33.75-37.5 33.75-36.55 32.8-36.6Q32.35-36.6 32.1-36.45L32.1-36.45 16.35-20.5ZM60.45-35.2L74.55-1.4Q74.7-0.95 75.75-0.95L75.75-0.95 75.75 0 65.6 0 65.6-0.95Q66.25-0.95 66.5-1.25 66.75-1.55 66.6-1.85L66.6-1.85 63.85-8.9 47.55-8.9 44.8-1.85 44.75-1.7Q44.75-1.4 45.02-1.18 45.3-0.95 45.75-0.95L45.75-0.95 45.75 0 35.9 0 35.9-0.95Q36.9-0.95 37.1-1.4L37.1-1.4 51-35.2Q51.15-35.5 51.15-35.75L51.15-35.75Q51.15-36.2 50.75-36.38 50.35-36.55 49.9-36.55L49.9-36.55 49.9-37.5 61.55-37.5 61.55-36.55Q61.1-36.55 60.7-36.38 60.3-36.2 60.3-35.75L60.3-35.75Q60.3-35.5 60.45-35.2L60.45-35.2ZM61.6-14.65L55.7-29.7 49.8-14.65 61.6-14.65ZM98.9-16.3L107.95-1.3Q108.15-0.95 109.3-0.95L109.3-0.95 109.3 0 99.15 0 99.15-0.95Q99.84-0.95 100.09-1.2 100.34-1.45 100.15-1.7L100.15-1.7 91.75-15.85 86.59-15.85 86.59-1.5Q86.59-1.25 87-1.1 87.4-0.95 87.75-0.95L87.75-0.95 87.75 0 78.75 0 78.75-0.95Q79.09-0.95 79.5-1.1 79.9-1.25 79.9-1.5L79.9-1.5 79.9-36Q79.9-36.25 79.52-36.4 79.15-36.55 78.8-36.55L78.8-36.55 78.8-37.5 94.05-37.5Q100.65-37.5 104.02-34.52 107.4-31.55 107.4-26.85L107.4-26.85Q107.4-22.5 105.02-19.85 102.65-17.2 98.9-16.3L98.9-16.3ZM94.95-31.7L86.59-31.7 86.59-21.9 94.8-21.9Q97.9-21.9 99.45-23.35 101-24.8 101-26.85L101-26.85Q101-28.85 99.25-30.28 97.5-31.7 94.95-31.7L94.95-31.7ZM142.24-38.5L143.19-38.5 143.19-30.8 142.24-30.8Q142.24-31.1 142.09-31.45 141.94-31.8 141.69-31.8L141.69-31.8 130.54-31.8 130.54-1.5Q130.54-1.25 130.94-1.1 131.34-0.95 131.74-0.95L131.74-0.95 131.74 0 122.54 0 122.54-0.95Q122.94-0.95 123.34-1.1 123.74-1.25 123.74-1.5L123.74-1.5 123.74-31.8 112.54-31.8Q112.29-31.8 112.14-31.45 111.99-31.1 111.99-30.8L111.99-30.8 111.04-30.8 111.04-38.5 111.99-38.5Q111.99-38.2 112.14-37.85 112.29-37.5 112.54-37.5L112.54-37.5 141.69-37.5Q141.94-37.5 142.09-37.85 142.24-38.2 142.24-38.5L142.24-38.5ZM168.99-35.2L183.09-1.4Q183.24-0.95 184.29-0.95L184.29-0.95 184.29 0 174.14 0 174.14-0.95Q174.79-0.95 175.04-1.25 175.29-1.55 175.14-1.85L175.14-1.85 172.39-8.9 156.09-8.9 153.34-1.85 153.29-1.7Q153.29-1.4 153.57-1.18 153.84-0.95 154.29-0.95L154.29-0.95 154.29 0 144.44 0 144.44-0.95Q145.44-0.95 145.64-1.4L145.64-1.4 159.54-35.2Q159.69-35.5 159.69-35.75L159.69-35.75Q159.69-36.2 159.29-36.38 158.89-36.55 158.44-36.55L158.44-36.55 158.44-37.5 170.09-37.5 170.09-36.55Q169.64-36.55 169.24-36.38 168.84-36.2 168.84-35.75L168.84-35.75Q168.84-35.5 168.99-35.2L168.99-35.2ZM170.14-14.65L164.24-29.7 158.34-14.65 170.14-14.65ZM223.59-37.5L223.59-36.55Q222.54-36.55 222.39-36.1L222.39-36.1 208.04-2.3Q207.94-2.1 207.94-1.75L207.94-1.75Q207.94-1.3 208.24-1.13 208.54-0.95 208.89-0.95L208.89-0.95 208.89 0 199.64 0 199.64-0.95Q199.99-0.95 200.29-1.13 200.59-1.3 200.59-1.75L200.59-1.75Q200.59-2.1 200.49-2.3L200.49-2.3 186.14-36.1Q185.99-36.55 184.94-36.55L184.94-36.55 184.94-37.5 194.64-37.5 194.64-36.55Q194.04-36.55 193.84-36.25 193.64-35.95 193.79-35.65L193.79-35.65 204.44-9.75 214.79-35.65Q214.89-35.95 214.46-36.25 214.04-36.55 213.44-36.55L213.44-36.55 213.44-37.5 223.59-37.5ZM261.59-37.5L261.59-36.55 261.29-36.55Q260.34-36.55 260.14-36.25L260.14-36.25 246.69-16.95 246.69-1.5Q246.69-1.25 247.11-1.1 247.54-0.95 247.94-0.95L247.94-0.95 247.94 0 238.14 0 238.14-0.95Q238.54-0.95 238.96-1.1 239.39-1.25 239.39-1.5L239.39-1.5 239.39-16.65 225.74-36.25Q225.59-36.45 225.11-36.5 224.64-36.55 224.29-36.55L224.29-36.55 224.29-37.5 234.59-37.5 234.59-36.55Q233.99-36.55 233.99-36.3L233.99-36.3Q233.99-36.1 234.14-35.85L234.14-35.85 242.84-23.6 251.44-35.85 251.54-36.05Q251.54-36.3 251.26-36.43 250.99-36.55 250.49-36.55L250.49-36.55 250.49-37.5 261.59-37.5ZM287.13-35.2L301.23-1.4Q301.38-0.95 302.43-0.95L302.43-0.95 302.43 0 292.28 0 292.28-0.95Q292.93-0.95 293.18-1.25 293.43-1.55 293.28-1.85L293.28-1.85 290.53-8.9 274.23-8.9 271.48-1.85 271.43-1.7Q271.43-1.4 271.71-1.18 271.98-0.95 272.43-0.95L272.43-0.95 272.43 0 262.58 0 262.58-0.95Q263.58-0.95 263.78-1.4L263.78-1.4 277.68-35.2Q277.83-35.5 277.83-35.75L277.83-35.75Q277.83-36.2 277.43-36.38 277.03-36.55 276.58-36.55L276.58-36.55 276.58-37.5 288.23-37.5 288.23-36.55Q287.78-36.55 287.38-36.38 286.98-36.2 286.98-35.75L286.98-35.75Q286.98-35.5 287.13-35.2L287.13-35.2ZM288.28-14.65L282.38-29.7 276.48-14.65 288.28-14.65Z" opacity="1" transform="matrix(1,0,0,1,0,0)" fill="#636365" class="wordmark-text-0" data-fill-palette-color="primary" id="text-0"></path></svg></g></svg></g></svg></g></svg></g></svg></g></svg></g></svg></g><path d="M218.68 101.913L218.68 38.027 389.826 38.027 389.826 209.173 218.68 209.173 218.68 145.287 221.51 145.287 221.51 206.343 386.996 206.343 386.996 40.857 221.51 40.857 221.51 101.913Z" fill="#636365" stroke="transparent" data-fill-palette-color="tertiary"></path></svg></g><defs></defs></svg><rect width="395.52" height="247.2" fill="none" stroke="none" visibility="hidden"></rect></g></svg></g></svg>